# xmcd
#
# Track frame offsets: 
#        150
#        16842
#        28147
#        42067
#        53275
#        67047
#        86247
#        104662
#        116030
#        126020
#        141747
#        152157
#        163870
#        178902
#        192897
#        210992
#        224542
#        237672
#        252962
#        267027
#
# Disc length: 3708 seconds
#
# Revision: 0
# Processed by: cddbd v1.5.2PL0 Copyright (c) Steve Scherf et al.
# Submitted via: ExactAudioCopyFreeDBPlugin 1.0
#
DISCID=2c0e7a14
DTITLE=Various Artist - Collectables Presents A Rhythm and Blues Christ
DTITLE=mas, Volume 4
DYEAR=1994
DGENRE=Holiday
TTITLE0=The Feathers - More Than Enough for Me
TTITLE1=Jimmy Beasley - Christmas is Here Again
TTITLE2=Rudy West and The Five Keys - I Want You for Christmas
TTITLE3=George Grant and The Castelles - At Christmas Time
TTITLE4=Don Julian and The Meadowlarks - Merry Christmas Baby
TTITLE5=Vicky Tafoya and Al Sanchez - White Christmas
TTITLE6=The Five Boroughs - Like a Kid at Christmas
TTITLE7=Margo Sylvia and The Tune Weavers - Merry Merry Christmas Baby
TTITLE8=The Blossoms - Winter Wonderland
TTITLE9=The Storytellers - Christmas Time is Coming
TTITLE10=The Jaguars - Merry Christmas Darling
TTITLE11=The Feathers - Ride on Santa
TTITLE12=The Jaguars - Happy Holiday
TTITLE13=The Five Boroughs - Only at Christmas
TTITLE14=Margo Sylvia and The Tune Weavers - What Are You Doing New Ye
TTITLE14=ar's Eve
TTITLE15=Jimmy Beaumont and The Skyliners - Another Lonely New Years E
TTITLE15=ve
TTITLE16=The Echelons - A Christmas Long Ago (Jingle Jingle)
TTITLE17=Parkway - Maybe Next Christmas
TTITLE18=The Echelons - Snowtime
TTITLE19=Younger Dayz - Christmas in New York
EXTD=
EXTT0=
EXTT1=
EXTT2=
EXTT3=
EXTT4=
EXTT5=
EXTT6=
EXTT7=
EXTT8=
EXTT9=
EXTT10=
EXTT11=
EXTT12=
EXTT13=
EXTT14=
EXTT15=
EXTT16=
EXTT17=
EXTT18=
EXTT19=
PLAYORDER=
